IKResults
version=1
nRows=11
nColumns=40
inDegrees=yes

Units are S.I. units (second, meters, Newtons, ...)
Angles are in degrees.

endheader
time	pelvis_tilt	pelvis_list	pelvis_rotation	pelvis_tx	pelvis_ty	pelvis_tz	hip_flexion_r	hip_adduction_r	hip_rotation_r	knee_angle_r	knee_angle_r_beta	ankle_angle_r	subtalar_angle_r	mtp_angle_r	hip_flexion_l	hip_adduction_l	hip_rotation_l	knee_angle_l	knee_angle_l_beta	ankle_angle_l	subtalar_angle_l	mtp_angle_l	lumbar_extension	lumbar_bending	lumbar_rotation	arm_flex_r	arm_add_r	arm_rot_r	elbow_flex_r	pro_sup_r	wrist_flex_r	wrist_dev_r	arm_flex_l	arm_add_l	arm_rot_l	elbow_flex_l	pro_sup_l	wrist_flex_l	wrist_dev_l
      0.00000000	     16.94712597	     -3.37566609	      4.21273025	     -0.79518840	      0.95137797	      0.97006632	    -14.00698975	      5.06890200	    -12.15367210	    -16.44810961	     -0.28707367	      7.95686481	     -4.02356302	      1.21775584	     -3.73556676	      2.21847692	     -0.44224811	    -60.14104831	     -1.04965931	      3.88136396	     17.99740368	     10.28587681	    -22.55776614	      2.82872929	     -2.09736986	    -11.01937720	    -13.59575392	     -3.96986630	     30.17971191	     89.95437384	      0.00000000	      0.00000000	      0.68461093	      7.57843725	     11.11209157	     31.39687788	     89.95437384	      0.00000000	      0.00000000
      0.01000000	     16.65362456	     -3.13052853	      4.12314467	     -0.78243811	      0.95104699	      0.97173634	    -14.67952899	      4.95874023	    -12.42102996	    -16.23207831	     -0.28330321	      8.37184790	     -4.08373692	      1.16673328	     -1.98168805	      2.14022700	      0.19139997	    -59.12008725	     -1.03184018	      4.58052400	     18.03465331	     10.13156743	    -22.29827938	      2.38684700	     -2.00314374	    -10.36087016	    -13.56183296	     -3.86133085	     31.28861832	     89.95437384	      0.00000000	      0.00000000	     -0.07031492	      7.69125109	     11.24437673	     30.08318911	     89.95437384	      0.00000000	      0.00000000
      0.02000000	     16.66136319	     -2.61335425	      3.76406377	     -0.76948661	      0.95105787	      0.97304682	    -15.95613435	      4.54342845	    -11.86126051	    -15.56789270	     -0.27171099	      8.93435650	     -3.93297447	      1.09483677	     -0.89924225	      1.42668684	      0.52737778	    -57.55090590	     -1.00445280	      6.05944063	     18.12238760	     10.08649033	    -22.35865278	      1.68218101	     -1.49299591	    -10.13949158	    -13.76009227	     -3.53277009	     33.02747312	     89.95437384	      0.00000000	      0.00000000	     -0.13286144	      7.46537083	     12.13989060	     27.65273142	     89.95437384	      0.00000000	      0.00000000
      0.03000000	     16.65317023	     -2.19232380	      3.26313124	     -0.75664310	      0.95075207	      0.97475455	    -17.03595794	      4.13305244	    -11.44987075	    -15.20725137	     -0.26541661	      9.45461037	     -3.93223400	      1.02155925	      0.15531023	      1.03078495	      1.38077246	    -55.71581853	     -0.97242448	      6.89623765	     18.08291856	     10.09801104	    -22.43616786	      0.98427900	     -0.98177220	     -9.65441497	    -13.89973658	     -3.20864815	     34.49938939	     89.95437384	      0.00000000	      0.00000000	     -0.54282802	      7.36197078	     13.04924522	     25.86979208	     89.95437384	      0.00000000	      0.00000000
      0.04000000	     16.84345463	     -1.69691123	      2.70187251	     -0.74363267	      0.95066400	      0.97642329	    -18.33418132	      3.61644528	    -10.96447939	    -14.85583183	     -0.25928318	      9.77636439	     -4.13373144	      0.97692538	      0.76990090	      0.63189678	      2.42815840	    -53.36782732	     -0.93144430	      7.20886994	     18.07311378	     10.38126607	    -22.73108043	      0.19201681	     -0.54811885	     -9.04451142	    -13.99275349	     -2.97065037	     35.84852696	     89.95437384	      0.00000000	      0.00000000	     -1.05425952	      7.23226468	     14.43395201	     24.28601145	     89.95437384	      0.00000000	      0.00000000
      0.05000000	     16.76391250	     -1.35605734	      2.36556796	     -0.73073949	      0.94984433	      0.97777064	    -19.29832265	      3.29100255	    -10.68233112	    -14.55886095	     -0.25410006	     10.24676471	     -4.19342938	      0.90284599	      1.75174815	      0.36104074	      3.18377176	    -51.03738896	     -0.89077048	      7.77682028	     18.00387376	     10.52306418	    -22.70935180	     -0.35401556	     -0.19355279	     -8.53500051	    -14.13116045	     -2.74924245	     37.28058000	     89.95437384	      0.00000000	      0.00000000	     -1.45595619	      7.22068574	     15.28049825	     22.49022130	     89.95437384	      0.00000000	      0.00000000
      0.06000000	     16.57954841	     -1.05320371	      2.03526437	     -0.71811805	      0.94862886	      0.97902173	    -20.03980376	      2.97814458	    -10.37757422	    -14.42343293	     -0.25173639	     10.81497102	     -4.20868179	      0.79045268	      2.79820540	      0.09580974	      3.87930557	    -48.49103545	     -0.84632823	      8.28722163	     17.91277745	     10.48825794	    -22.62244506	     -0.86016437	      0.13731408	     -7.95563977	    -14.24576343	     -2.58011378	     38.64538564	     89.95437384	      0.00000000	      0.00000000	     -1.81431555	      7.24771912	     16.09148127	     20.73843270	     89.95437384	      0.00000000	      0.00000000
      0.07000000	     16.26694976	     -0.90190331	      1.92204282	     -0.70514508	      0.94691534	      0.97991858	    -20.68781290	      2.89410478	    -10.26241186	    -14.24462766	     -0.24861565	     11.31680224	     -4.14643563	      0.69651093	      3.94714628	     -0.01541679	      4.31739391	    -45.84528426	     -0.80015116	      9.02315806	     17.61539367	     10.33413148	    -22.31223569	     -1.12378007	      0.32013095	     -7.39477898	    -14.38524106	     -2.39591584	     39.88571740	     89.95437384	      0.00000000	      0.00000000	     -2.27321228	      7.32927663	     16.53261674	     19.02908804	     89.95437384	      0.00000000	      0.00000000
      0.08000000	     16.39771900	     -0.52543750	      1.47159683	     -0.69189511	      0.94580700	      0.98096665	    -21.84705349	      2.45039963	    -10.01770872	    -14.00692077	     -0.24446689	     11.65213621	     -4.24309306	      0.65980846	      4.20397660	     -0.30321386	      5.42250819	    -42.40013528	     -0.74002196	      9.24548453	     17.34972540	     10.09197016	    -22.50515742	     -1.71271218	      0.69819792	     -6.89051574	    -14.51821203	     -2.30641053	     41.26583964	     89.95437384	      0.00000000	      0.00000000	     -2.66843058	      7.31560579	     17.87044037	     17.41346139	     89.95437384	      0.00000000	      0.00000000
      0.09000000	     16.21329795	     -0.25502059	      1.23831465	     -0.67912410	      0.94399277	      0.98171246	    -22.56112662	      2.17591608	     -9.86866322	    -13.95760114	     -0.24360610	     12.16821146	     -4.39327407	      0.54829138	      4.88904635	     -0.57989898	      5.78667017	    -39.19367014	     -0.68405859	      9.28405292	     16.56808568	      9.58811474	    -22.40383954	     -2.12294082	      0.86611576	     -6.23286089	    -14.64175203	     -2.13530365	     42.43324939	     89.95437384	      0.00000000	      0.00000000	     -3.08805527	      7.38119023	     18.79496635	     15.93985415	     89.95437384	      0.00000000	      0.00000000
      0.10000000	     16.05584525	     -0.06373896	      1.01231250	     -0.66624976	      0.94199450	      0.98240653	    -23.29491381	      1.96809690	     -9.77312090	    -13.92458522	     -0.24302986	     12.57129553	     -4.45077853	      0.44594739	      5.40152928	     -0.71203554	      6.46545925	    -35.60530344	     -0.62142978	      9.19858819	     15.49465456	      8.80128430	    -22.32913909	     -2.43449817	      1.03656585	     -5.59780429	    -14.78137038	     -1.95537274	     43.64100529	     89.95437384	      0.00000000	      0.00000000	     -3.56446561	      7.46538711	     19.68949833	     14.63153780	     89.95437384	      0.00000000	      0.00000000
